<svg width="69" height="67" viewBox="0 0 69 67" fill="none" xmlns="http://www.w3.org/2000/svg">
<g clip-path="url(#clip0_1092_1751)">
<path d="M33.8584 1.74966C33.2876 1.77842 32.7283 1.91996 32.2133 2.16596L9.76465 12.8922C9.18363 13.1696 8.67311 13.5734 8.271 14.0734C7.8689 14.5734 7.58554 15.1569 7.44199 15.7804L1.90375 39.8742C1.77586 40.4293 1.76155 41.0042 1.86166 41.5649C1.96177 42.1256 2.17427 42.6607 2.48657 43.1386C2.5623 43.2554 2.64374 43.3684 2.73061 43.4773L18.2687 62.7965C18.6709 63.2964 19.1814 63.7001 19.7625 63.9774C20.3435 64.2548 20.9801 64.3987 21.6249 64.3986L46.5427 64.3928C47.1872 64.3933 47.8237 64.2498 48.4047 63.9729C48.9857 63.6961 49.4964 63.293 49.8989 62.7937L65.4312 43.4716C65.8336 42.9715 66.1172 42.3878 66.2608 41.764C66.4045 41.1402 66.4045 40.4923 66.2609 39.8685L60.7141 15.7747C60.5705 15.1511 60.2872 14.5677 59.8851 14.0677C59.483 13.5676 58.9725 13.1639 58.3914 12.8864L35.9399 2.16596C35.2922 1.8565 34.5764 1.71336 33.8584 1.74966Z" fill="#CAD80A"/>
<path d="M33.8462 0.00593417C33.2443 0.0374638 32.6548 0.187777 32.1121 0.448075L8.41172 11.7686C7.79838 12.0615 7.25946 12.4877 6.83498 13.0156C6.41051 13.5435 6.11139 14.1594 5.95985 14.8176L0.114424 40.2521C-0.0209892 40.8384 -0.0363846 41.4457 0.0691517 42.038C0.174688 42.6303 0.399006 43.1955 0.728821 43.7003C0.809055 43.823 0.895283 43.9418 0.9872 44.0563L17.3894 64.4521C17.814 64.9798 18.353 65.4058 18.9663 65.6986C19.5797 65.9913 20.2516 66.1433 20.9323 66.1432L47.2368 66.1374C47.9172 66.1379 48.589 65.9864 49.2023 65.6941C49.8157 65.4019 50.3547 64.9764 50.7796 64.4492L67.1761 44.0505C67.6005 43.5228 67.8996 42.907 68.0512 42.249C68.2028 41.5909 68.203 40.9074 68.0518 40.2493L62.1977 14.8119C62.0458 14.1542 61.7465 13.5388 61.3221 13.0115C60.8976 12.4841 60.3589 12.0584 59.7459 11.7657L36.0455 0.445204C35.3611 0.118287 34.6049 -0.0327647 33.8462 0.00593417ZM33.8577 1.75153C34.5758 1.71522 35.2915 1.85837 35.9392 2.16783L58.3907 12.8883C58.9718 13.1658 59.4823 13.5695 59.8844 14.0695C60.2865 14.5696 60.5699 15.153 60.7134 15.7765L66.2603 39.8703C66.4038 40.4941 66.4038 41.142 66.2602 41.7658C66.1165 42.3896 65.8329 42.9733 65.4305 43.4734L49.8982 62.7955C49.4957 63.2949 48.985 63.698 48.404 63.9748C47.823 64.2517 47.1866 64.3952 46.542 64.3947L21.6242 64.4005C20.9794 64.4006 20.3428 64.2566 19.7618 63.9793C19.1808 63.7019 18.6702 63.2983 18.268 62.7984L2.72994 43.4792C2.64307 43.3703 2.56163 43.2572 2.4859 43.1404C2.1736 42.6626 1.9611 42.1275 1.86099 41.5668C1.76088 41.0061 1.7752 40.4312 1.90308 39.8761L7.44131 15.7823C7.58487 15.1588 7.86823 14.5753 8.27033 14.0753C8.67244 13.5753 9.18296 13.1715 9.76398 12.8941L32.2126 2.16785C32.7276 1.92184 33.2869 1.78028 33.8577 1.75153Z" fill="white"/>
<path d="M20.2725 58.4355H17.8786V50.678H20.3786C21.1311 50.678 21.7751 50.8333 22.3104 51.1439C22.8458 51.452 23.2561 51.8951 23.5415 52.4734C23.8268 53.0492 23.9695 53.7386 23.9695 54.5416C23.9695 55.3497 23.8256 56.0454 23.5377 56.6287C23.2498 57.2095 22.8306 57.6565 22.2801 57.9696C21.7296 58.2802 21.0604 58.4355 20.2725 58.4355ZM18.818 57.6022H20.2119C20.8534 57.6022 21.3849 57.4785 21.8066 57.231C22.2284 56.9835 22.5427 56.6313 22.7498 56.1742C22.9569 55.7171 23.0604 55.1729 23.0604 54.5416C23.0604 53.9153 22.9581 53.3762 22.7536 52.9242C22.5491 52.4696 22.2435 52.1212 21.8369 51.8787C21.4304 51.6338 20.9241 51.5113 20.318 51.5113H18.818V57.6022ZM27.8635 58.5568C27.3028 58.5568 26.8193 58.433 26.4127 58.1855C26.0087 57.9355 25.6968 57.5871 25.4771 57.1401C25.2599 56.6906 25.1513 56.1679 25.1513 55.5719C25.1513 54.976 25.2599 54.4507 25.4771 53.9962C25.6968 53.5391 26.0023 53.183 26.3938 52.928C26.7877 52.6704 27.2473 52.5416 27.7725 52.5416C28.0756 52.5416 28.3748 52.5921 28.6703 52.6931C28.9657 52.7941 29.2347 52.9583 29.4771 53.1855C29.7195 53.4103 29.9127 53.7083 30.0566 54.0795C30.2006 54.4507 30.2725 54.9078 30.2725 55.4507V55.8295H25.7877V55.0568H29.3635C29.3635 54.7285 29.2978 54.4355 29.1665 54.178C29.0377 53.9204 28.8534 53.7171 28.6135 53.5681C28.3761 53.4191 28.0958 53.3446 27.7725 53.3446C27.4165 53.3446 27.1084 53.433 26.8483 53.6098C26.5907 53.784 26.3925 54.0113 26.2536 54.2916C26.1147 54.5719 26.0453 54.8724 26.0453 55.1931V55.7083C26.0453 56.1477 26.121 56.5201 26.2725 56.8257C26.4266 57.1287 26.64 57.3598 26.9127 57.5189C27.1854 57.6754 27.5023 57.7537 27.8635 57.7537C28.0983 57.7537 28.3104 57.7209 28.4998 57.6552C28.6917 57.5871 28.8571 57.4861 28.996 57.3522C29.1349 57.2158 29.2422 57.0467 29.318 56.8446L30.1816 57.0871C30.0907 57.38 29.9379 57.6376 29.7233 57.8598C29.5087 58.0795 29.2435 58.2512 28.9278 58.3749C28.6122 58.4962 28.2574 58.5568 27.8635 58.5568ZM31.6324 60.6174V52.6174H32.496V53.5416H32.6021C32.6677 53.4406 32.7587 53.3118 32.8748 53.1552C32.9935 52.9962 33.1627 52.8547 33.3824 52.731C33.6046 52.6047 33.9051 52.5416 34.2839 52.5416C34.7738 52.5416 35.2056 52.6641 35.5794 52.909C35.9531 53.154 36.2448 53.5012 36.4544 53.9507C36.664 54.4002 36.7688 54.9305 36.7688 55.5416C36.7688 56.1578 36.664 56.6919 36.4544 57.1439C36.2448 57.5934 35.9544 57.9419 35.5831 58.1893C35.2119 58.4343 34.7839 58.5568 34.2991 58.5568C33.9253 58.5568 33.6261 58.4949 33.4013 58.3712C33.1766 58.2449 33.0036 58.1022 32.8824 57.9431C32.7612 57.7815 32.6677 57.6477 32.6021 57.5416H32.5263V60.6174H31.6324ZM32.5112 55.5265C32.5112 55.9658 32.5756 56.3535 32.7044 56.6893C32.8331 57.0227 33.0213 57.284 33.2688 57.4734C33.5162 57.6603 33.8193 57.7537 34.1778 57.7537C34.5516 57.7537 34.8635 57.6552 35.1135 57.4583C35.366 57.2588 35.5554 56.9911 35.6816 56.6552C35.8104 56.3169 35.8748 55.9406 35.8748 55.5265C35.8748 55.1174 35.8117 54.7487 35.6854 54.4204C35.5617 54.0896 35.3736 53.8282 35.121 53.6363C34.871 53.4419 34.5566 53.3446 34.1778 53.3446C33.8142 53.3446 33.5087 53.4368 33.2612 53.6212C33.0137 53.803 32.8268 54.058 32.7006 54.3863C32.5743 54.7121 32.5112 55.0921 32.5112 55.5265ZM39.0263 50.678V58.4355H38.1324V50.678H39.0263ZM43.0273 58.5568C42.502 58.5568 42.0412 58.4318 41.6447 58.1818C41.2508 57.9318 40.9427 57.582 40.7205 57.1325C40.5008 56.683 40.3909 56.1578 40.3909 55.5568C40.3909 54.9507 40.5008 54.4217 40.7205 53.9696C40.9427 53.5176 41.2508 53.1666 41.6447 52.9166C42.0412 52.6666 42.502 52.5416 43.0273 52.5416C43.5525 52.5416 44.0121 52.6666 44.4061 52.9166C44.8025 53.1666 45.1106 53.5176 45.3303 53.9696C45.5525 54.4217 45.6636 54.9507 45.6636 55.5568C45.6636 56.1578 45.5525 56.683 45.3303 57.1325C45.1106 57.582 44.8025 57.9318 44.4061 58.1818C44.0121 58.4318 43.5525 58.5568 43.0273 58.5568ZM43.0273 57.7537C43.4263 57.7537 43.7545 57.6515 44.0121 57.4469C44.2697 57.2424 44.4604 56.9734 44.5841 56.6401C44.7078 56.3068 44.7697 55.9456 44.7697 55.5568C44.7697 55.1679 44.7078 54.8055 44.5841 54.4696C44.4604 54.1338 44.2697 53.8623 44.0121 53.6552C43.7545 53.4482 43.4263 53.3446 43.0273 53.3446C42.6283 53.3446 42.3 53.4482 42.0424 53.6552C41.7849 53.8623 41.5942 54.1338 41.4705 54.4696C41.3467 54.8055 41.2849 55.1679 41.2849 55.5568C41.2849 55.9456 41.3467 56.3068 41.4705 56.6401C41.5942 56.9734 41.7849 57.2424 42.0424 57.4469C42.3 57.6515 42.6283 57.7537 43.0273 57.7537ZM47.3956 60.6174C47.2441 60.6174 47.109 60.6047 46.9903 60.5795C46.8717 60.5568 46.7896 60.534 46.7441 60.5113L46.9714 59.7234C47.1886 59.779 47.3805 59.7992 47.5472 59.784C47.7138 59.7689 47.8616 59.6944 47.9903 59.5605C48.1217 59.4292 48.2416 59.2158 48.3502 58.9204L48.5169 58.4658L46.3653 52.6174H47.335L48.9411 57.2537H49.0017L50.6078 52.6174H51.5775L49.1078 59.284C48.9967 59.5845 48.859 59.8333 48.6949 60.0302C48.5307 60.2297 48.3401 60.3775 48.1229 60.4734C47.9083 60.5694 47.6659 60.6174 47.3956 60.6174Z" fill="white"/>
<path fill-rule="evenodd" clip-rule="evenodd" d="M34.5978 47.5886C25.3658 48.0253 17.5142 40.9244 17.0241 31.695C16.5339 22.4657 23.5893 14.5731 32.8157 14.0296C42.0419 13.4861 49.9752 20.4956 50.5722 29.7187L43.9312 30.1485C43.5707 24.5781 38.7793 20.3446 33.207 20.6729C27.6347 21.0012 23.3735 25.768 23.6695 31.3421C23.9654 36.9163 28.7076 41.2049 34.2834 40.9412L34.5978 47.5886Z" fill="white"/>
<path fill-rule="evenodd" clip-rule="evenodd" d="M38.0391 29.7383L43.3208 42.6662L55.5147 29.7383H38.0391Z" fill="white"/>
</g>
<defs>
<clipPath id="clip0_1092_1751">
<rect width="68.165" height="66.1432" fill="white"/>
</clipPath>
</defs>
</svg>
