<svg width="69" height="67" viewBox="0 0 69 67" fill="none" xmlns="http://www.w3.org/2000/svg">
<g clip-path="url(#clip0_1092_1737)">
<path d="M33.8584 1.74966C33.2876 1.77842 32.7283 1.91996 32.2133 2.16596L9.76465 12.8922C9.18363 13.1696 8.67311 13.5734 8.271 14.0734C7.8689 14.5734 7.58554 15.1569 7.44199 15.7804L1.90375 39.8742C1.77586 40.4293 1.76155 41.0042 1.86166 41.5649C1.96177 42.1256 2.17427 42.6607 2.48657 43.1386C2.5623 43.2554 2.64374 43.3684 2.73061 43.4773L18.2687 62.7965C18.6709 63.2964 19.1814 63.7001 19.7625 63.9774C20.3435 64.2548 20.9801 64.3987 21.6249 64.3986L46.5427 64.3928C47.1872 64.3933 47.8237 64.2498 48.4047 63.9729C48.9857 63.6961 49.4964 63.293 49.8989 62.7937L65.4312 43.4716C65.8336 42.9715 66.1172 42.3878 66.2608 41.764C66.4045 41.1402 66.4045 40.4923 66.2609 39.8685L60.7141 15.7747C60.5705 15.1511 60.2872 14.5677 59.8851 14.0677C59.483 13.5676 58.9725 13.1639 58.3914 12.8864L35.9399 2.16596C35.2922 1.8565 34.5764 1.71336 33.8584 1.74966Z" fill="#1AE08A"/>
<path d="M33.8462 0.00593417C33.2443 0.0374638 32.6548 0.187777 32.1121 0.448075L8.41172 11.7686C7.79838 12.0615 7.25946 12.4877 6.83498 13.0156C6.41051 13.5435 6.11139 14.1594 5.95985 14.8176L0.114424 40.2521C-0.0209892 40.8384 -0.0363846 41.4457 0.0691517 42.038C0.174688 42.6303 0.399006 43.1955 0.728821 43.7003C0.809055 43.823 0.895283 43.9418 0.9872 44.0563L17.3894 64.4521C17.814 64.9798 18.353 65.4058 18.9663 65.6986C19.5797 65.9913 20.2516 66.1433 20.9323 66.1432L47.2368 66.1374C47.9172 66.1379 48.589 65.9864 49.2023 65.6941C49.8157 65.4019 50.3547 64.9764 50.7796 64.4492L67.1761 44.0505C67.6005 43.5228 67.8996 42.907 68.0512 42.249C68.2028 41.5909 68.203 40.9074 68.0518 40.2493L62.1977 14.8119C62.0458 14.1542 61.7465 13.5388 61.3221 13.0115C60.8976 12.4841 60.3589 12.0584 59.7459 11.7657L36.0455 0.445204C35.3611 0.118287 34.6049 -0.0327647 33.8462 0.00593417ZM33.8577 1.75153C34.5758 1.71522 35.2915 1.85837 35.9392 2.16783L58.3907 12.8883C58.9718 13.1658 59.4823 13.5695 59.8844 14.0695C60.2865 14.5696 60.5699 15.153 60.7134 15.7765L66.2603 39.8703C66.4038 40.4941 66.4038 41.142 66.2602 41.7658C66.1165 42.3896 65.8329 42.9733 65.4305 43.4734L49.8982 62.7955C49.4957 63.2949 48.985 63.698 48.404 63.9748C47.823 64.2517 47.1866 64.3952 46.542 64.3947L21.6242 64.4005C20.9794 64.4006 20.3428 64.2566 19.7618 63.9793C19.1808 63.7019 18.6702 63.2983 18.268 62.7984L2.72994 43.4792C2.64307 43.3703 2.56163 43.2572 2.4859 43.1404C2.1736 42.6626 1.9611 42.1275 1.86099 41.5668C1.76088 41.0061 1.7752 40.4312 1.90308 39.8761L7.44131 15.7823C7.58487 15.1588 7.86823 14.5753 8.27033 14.0753C8.67244 13.5753 9.18296 13.1715 9.76398 12.8941L32.2126 2.16785C32.7276 1.92184 33.2869 1.78028 33.8577 1.75153Z" fill="white"/>
<path d="M29.8282 53.9204L29.0252 54.1477C28.9747 54.0138 28.9002 53.8838 28.8017 53.7575C28.7058 53.6287 28.5744 53.5227 28.4078 53.4393C28.2411 53.356 28.0277 53.3143 27.7676 53.3143C27.4116 53.3143 27.1148 53.3964 26.8775 53.5605C26.6426 53.7222 26.5252 53.928 26.5252 54.178C26.5252 54.4002 26.606 54.5757 26.7676 54.7045C26.9292 54.8333 27.1818 54.9406 27.5252 55.0265L28.3888 55.2386C28.909 55.3648 29.2967 55.558 29.5517 55.8181C29.8068 56.0757 29.9343 56.4078 29.9343 56.8143C29.9343 57.1477 29.8383 57.4456 29.6464 57.7083C29.457 57.9709 29.1919 58.178 28.851 58.3295C28.51 58.481 28.1136 58.5568 27.6616 58.5568C27.0681 58.5568 26.577 58.428 26.1881 58.1704C25.7992 57.9128 25.553 57.5366 25.4494 57.0416L26.2979 56.8295C26.3787 57.1426 26.5315 57.3775 26.7563 57.534C26.9835 57.6906 27.2802 57.7689 27.6464 57.7689C28.0631 57.7689 28.3939 57.6805 28.6388 57.5037C28.8863 57.3244 29.01 57.1098 29.01 56.8598C29.01 56.6578 28.9393 56.4886 28.7979 56.3522C28.6565 56.2133 28.4393 56.1098 28.1464 56.0416L27.1767 55.8143C26.6439 55.6881 26.2525 55.4924 26.0025 55.2272C25.755 54.9595 25.6313 54.6249 25.6313 54.2234C25.6313 53.8951 25.7234 53.6047 25.9078 53.3522C26.0946 53.0997 26.3484 52.9015 26.6691 52.7575C26.9924 52.6136 27.3585 52.5416 27.7676 52.5416C28.3434 52.5416 28.7954 52.6679 29.1237 52.9204C29.4545 53.1729 29.6893 53.5063 29.8282 53.9204ZM36.0375 52.6174L33.886 58.4355H32.9769L30.8254 52.6174H31.7951L33.4011 57.2537H33.4618L35.0678 52.6174H36.0375ZM39.3727 58.5568C38.8273 58.5568 38.3576 58.428 37.9636 58.1704C37.5697 57.9128 37.2667 57.558 37.0546 57.106C36.8424 56.654 36.7364 56.1376 36.7364 55.5568C36.7364 54.9658 36.845 54.4444 37.0621 53.9924C37.2818 53.5378 37.5874 53.183 37.9788 52.928C38.3727 52.6704 38.8323 52.5416 39.3576 52.5416C39.7667 52.5416 40.1354 52.6174 40.4636 52.7689C40.7919 52.9204 41.0609 53.1325 41.2705 53.4052C41.4801 53.678 41.6101 53.9962 41.6606 54.3598H40.7667C40.6985 54.0946 40.547 53.8598 40.3121 53.6552C40.0798 53.4482 39.7667 53.3446 39.3727 53.3446C39.0243 53.3446 38.7187 53.4355 38.4561 53.6174C38.196 53.7967 37.9927 54.0504 37.8462 54.3787C37.7023 54.7045 37.6303 55.0871 37.6303 55.5265C37.6303 55.976 37.701 56.3674 37.8424 56.7007C37.9864 57.034 38.1884 57.2929 38.4485 57.4772C38.7111 57.6616 39.0192 57.7537 39.3727 57.7537C39.6051 57.7537 39.8159 57.7133 40.0053 57.6325C40.1947 57.5517 40.3551 57.4355 40.4864 57.284C40.6177 57.1325 40.7111 56.9507 40.7667 56.7386H41.6606C41.6101 57.082 41.4851 57.3914 41.2856 57.6666C41.0886 57.9393 40.8273 58.1565 40.5015 58.3181C40.1783 58.4772 39.802 58.5568 39.3727 58.5568Z" fill="white"/>
<path fill-rule="evenodd" clip-rule="evenodd" d="M13.5864 38.1211H24.5785V45.8376H13.5864V38.1211Z" fill="white"/>
<path fill-rule="evenodd" clip-rule="evenodd" d="M28.5864 38.1211H39.5785V45.8376H28.5864V38.1211Z" fill="white"/>
<path fill-rule="evenodd" clip-rule="evenodd" d="M43.5864 38.1211H54.5785V45.8376H43.5864V38.1211Z" fill="white"/>
<path fill-rule="evenodd" clip-rule="evenodd" d="M25.3738 15.2461H42.7911V22.9626H25.3738V15.2461Z" fill="white"/>
<path d="M34.0825 22.9629V30.5425H19.0903V38.1125" stroke="white" stroke-width="2" stroke-miterlimit="10" stroke-linejoin="round"/>
<path d="M34.0825 22.9629V30.5425H49.0747V38.1125" stroke="white" stroke-width="1.99937" stroke-miterlimit="10" stroke-linejoin="round"/>
<path d="M34.051 22.9668V30.5464H34.1141V38.1164" stroke="white" stroke-width="2" stroke-miterlimit="10" stroke-linejoin="round"/>
</g>
<defs>
<clipPath id="clip0_1092_1737">
<rect width="68.165" height="66.1432" fill="white"/>
</clipPath>
</defs>
</svg>
