<svg width="18" height="16" viewBox="0 0 18 16" fill="none" xmlns="http://www.w3.org/2000/svg">
<g clip-path="url(#clip0_1092_1656)">
<path d="M0 2C0 0.896875 0.896875 0 2 0H7V4C7 4.55313 7.44687 5 8 5H12V9H6.75C6.33437 9 6 9.33437 6 9.75C6 10.1656 6.33437 10.5 6.75 10.5H12V14C12 15.1031 11.1031 16 10 16H2C0.896875 16 0 15.1031 0 14V2ZM12 10.5V9H15.4406L14.2219 7.78125C13.9281 7.4875 13.9281 7.0125 14.2219 6.72188C14.5156 6.43125 14.9906 6.42813 15.2812 6.72188L17.7812 9.22188C18.075 9.51563 18.075 9.99062 17.7812 10.2812L15.2812 12.7812C14.9875 13.075 14.5125 13.075 14.2219 12.7812C13.9313 12.4875 13.9281 12.0125 14.2219 11.7219L15.4406 10.5031L12 10.5ZM12 4H8V0L12 4Z" fill="white"/>
</g>
<defs>
<clipPath id="clip0_1092_1656">
<rect width="18" height="16" fill="white"/>
</clipPath>
</defs>
</svg>
