<svg width="25" height="25" viewBox="0 0 25 25" fill="none" xmlns="http://www.w3.org/2000/svg">
<path d="M23.571 16.3875L18.9562 13.102C18.9091 13.068 18.8535 13.0479 18.7955 13.0438C18.7376 13.0396 18.6796 13.0518 18.6282 13.0788C18.5222 13.1333 18.4572 13.2523 18.457 13.372L18.4592 14.9273H14.3077C14.1312 14.9273 13.96 15.0515 13.96 15.2283V18.0888C13.96 18.2655 14.1312 18.3873 14.3077 18.3873H18.5012V19.9548C18.5012 20.0743 18.5472 20.184 18.6535 20.2388C18.7597 20.2935 18.8667 20.2843 18.964 20.2145L23.572 16.9075C23.6557 16.8478 23.6912 16.751 23.6912 16.648V16.6475C23.6912 16.544 23.6552 16.4475 23.571 16.3875Z" fill="white"/>
<path d="M16.0151 19.6383H14.3926C14.2779 19.6383 14.1679 19.6838 14.0868 19.7649C14.0057 19.846 13.9601 19.956 13.9601 20.0707H13.9583V20.8232H3.79784V9.04H8.22859C8.34329 9.04 8.4533 8.99443 8.53441 8.91332C8.61552 8.83221 8.66109 8.72221 8.66109 8.6075V4.17675H13.9581V13.2657H13.9608C13.9634 13.3786 14.0099 13.486 14.0906 13.5649C14.1712 13.6439 14.2795 13.6883 14.3923 13.6885H16.0148C16.2506 13.6885 16.4411 13.5 16.4463 13.2657H16.4473V3.125H16.4461V2.12C16.4461 2.00529 16.4005 1.89529 16.3194 1.81418C16.2383 1.73307 16.1283 1.6875 16.0136 1.6875H7.79609L1.30884 8.175V22.8797C1.30884 23.1187 1.50234 23.3123 1.74134 23.3123H16.0136C16.1283 23.3123 16.2383 23.2667 16.3194 23.1856C16.4005 23.1045 16.4461 22.9945 16.4461 22.8797V22.2677H16.4473V20.0702C16.4472 19.9557 16.4016 19.8458 16.3206 19.7648C16.2395 19.6838 16.1297 19.6383 16.0151 19.6383Z" fill="white"/>
<path d="M5.38135 15.4648V17.7726H6.0801V17.0461H6.61285C7.1526 17.0461 7.4431 16.6863 7.4431 16.2571C7.4431 15.8246 7.1526 15.4648 6.61285 15.4648H5.38135ZM6.7341 16.2571C6.7341 16.3781 6.6406 16.4371 6.5231 16.4371H6.0801V16.0738H6.52285C6.6406 16.0738 6.7341 16.1326 6.7341 16.2571ZM7.8071 15.4648V17.7726H8.8416C9.56485 17.7726 10.1046 17.3538 10.1046 16.6168C10.1046 15.8798 9.56485 15.4648 8.83835 15.4648H7.8071ZM9.3951 16.6171C9.3951 16.9078 9.1876 17.1638 8.8381 17.1638H8.50585V16.0738H8.84135C9.2151 16.0738 9.3951 16.3056 9.3951 16.6171ZM12.2791 16.0738V15.4648H10.5283V17.7726H11.2271V16.9111H12.2546V16.3021H11.2271V16.0738H12.2791Z" fill="white"/>
</svg>
