<svg width="20" height="20" viewBox="0 0 20 20" fill="none" xmlns="http://www.w3.org/2000/svg">
<path d="M10.8482 0.751734C10.6232 0.526769 10.318 0.400391 9.9998 0.400391C9.68161 0.400391 9.37644 0.526769 9.1514 0.751734L0.751405 9.15174C0.532815 9.37806 0.411862 9.68118 0.414596 9.99582C0.41733 10.3105 0.543533 10.6114 0.766023 10.8339C0.988512 11.0564 1.28949 11.1826 1.60412 11.1853C1.91876 11.1881 2.22188 11.0671 2.4482 10.8485L2.7998 10.4969V18.4001C2.7998 18.7184 2.92623 19.0236 3.15128 19.2487C3.37632 19.4737 3.68155 19.6001 3.9998 19.6001H6.3998C6.71806 19.6001 7.02329 19.4737 7.24833 19.2487C7.47338 19.0236 7.5998 18.7184 7.5998 18.4001V16.0001C7.5998 15.6819 7.72623 15.3767 7.95128 15.1516C8.17632 14.9266 8.48154 14.8001 8.7998 14.8001H11.1998C11.5181 14.8001 11.8233 14.9266 12.0483 15.1516C12.2734 15.3767 12.3998 15.6819 12.3998 16.0001V18.4001C12.3998 18.7184 12.5262 19.0236 12.7513 19.2487C12.9763 19.4737 13.2815 19.6001 13.5998 19.6001H15.9998C16.3181 19.6001 16.6233 19.4737 16.8483 19.2487C17.0734 19.0236 17.1998 18.7184 17.1998 18.4001V10.4969L17.5514 10.8485C17.7777 11.0671 18.0808 11.1881 18.3955 11.1853C18.7101 11.1826 19.0111 11.0564 19.2336 10.8339C19.4561 10.6114 19.5823 10.3105 19.585 9.99582C19.5877 9.68118 19.4668 9.37806 19.2482 9.15174L10.8482 0.751734Z" fill="white"/>
</svg>
