<svg width="8" height="8" viewBox="0 0 8 8" fill="none" xmlns="http://www.w3.org/2000/svg">
<path fill-rule="evenodd" clip-rule="evenodd" d="M0 3.20005C0 2.08005 -5.96046e-08 1.52005 0.218 1.09005C0.41 0.714047 0.716 0.408047 1.092 0.216047C1.52 -0.00195318 2.08 -0.00195312 3.202 -0.00195312H4.802C5.922 -0.00195312 6.482 -0.00195318 6.912 0.216047C7.288 0.408047 7.594 0.714047 7.786 1.09005C8.004 1.51805 8.004 2.07805 8.004 3.20005V4.80005C8.004 5.92005 8.004 6.48005 7.786 6.91005C7.59426 7.28635 7.28831 7.5923 6.912 7.78405C6.484 8.00205 5.924 8.00205 4.802 8.00205H3.202C2.082 8.00205 1.522 8.00205 1.092 7.78405C0.715693 7.5923 0.409744 7.28635 0.218 6.91005C-5.96046e-08 6.48205 0 5.92205 0 4.80005V3.20005ZM3.2 1.00005H4.8C5.377 1.00005 5.749 1.00005 6.03 1.02405C6.302 1.04605 6.402 1.08405 6.452 1.10905C6.64 1.20505 6.793 1.35805 6.889 1.54605C6.914 1.59605 6.952 1.69605 6.974 1.96805C6.997 2.25105 6.998 2.62405 6.998 3.19805V4.79805C6.998 5.37505 6.998 5.74705 6.974 6.02805C6.952 6.30005 6.914 6.40005 6.889 6.45005C6.79313 6.6382 6.64015 6.79117 6.452 6.88705C6.402 6.91205 6.302 6.95005 6.03 6.97205C5.747 6.99505 5.374 6.99605 4.8 6.99605H3.2C2.623 6.99605 2.251 6.99605 1.97 6.97205C1.698 6.95005 1.598 6.91205 1.548 6.88705C1.35985 6.79117 1.20687 6.6382 1.111 6.45005C1.086 6.40005 1.048 6.30005 1.026 6.02805C1.00316 5.61847 0.995157 5.2082 1.002 4.79805V3.19805C1.002 2.62105 1.002 2.24905 1.026 1.96805C1.048 1.69605 1.086 1.59605 1.111 1.54605C1.207 1.35805 1.36 1.20505 1.548 1.10905C1.598 1.08405 1.698 1.04605 1.97 1.02405C2.253 1.00005 2.626 1.00005 3.2 1.00005Z" fill="white"/>
</svg>
