<svg width="21" height="21" viewBox="0 0 21 21" fill="none" xmlns="http://www.w3.org/2000/svg">
<path d="M8 7L15 14H12V18L11 21L10 18V14H6C5.73478 14 5.48043 13.8946 5.29289 13.7071C5.10536 13.5196 5 13.2652 5 13V11.414C5.00006 11.1488 5.10545 10.8945 5.293 10.707L8 8V7ZM15 0C15.2652 0 15.5196 0.105357 15.7071 0.292893C15.8946 0.48043 16 0.734784 16 1V1.382C15.9999 1.56766 15.9481 1.74963 15.8504 1.90753C15.7528 2.06542 15.6131 2.19301 15.447 2.276L14 3V8L16.707 10.707C16.8946 10.8945 16.9999 11.1488 17 11.414V13C17.0001 13.1314 16.9743 13.2616 16.924 13.383L11.27 7.73L8 4.46V3L6.553 2.276C6.38692 2.19301 6.24722 2.06542 6.14955 1.90753C6.05188 1.74963 6.0001 1.56766 6 1.382V1C6 0.734784 6.10536 0.48043 6.29289 0.292893C6.48043 0.105357 6.73478 0 7 0H15Z" fill="#F24822"/>
<path d="M0.634769 0.904789C0.466839 1.07346 0.372559 1.30178 0.372559 1.53979C0.372559 1.7778 0.466839 2.00612 0.634769 2.17479L18.8248 20.3648C18.9932 20.5332 19.2216 20.6278 19.4598 20.6278C19.6979 20.6278 19.9264 20.5332 20.0948 20.3648C20.2632 20.1964 20.3578 19.968 20.3578 19.7298C20.3578 19.4916 20.2632 19.2632 20.0948 19.0948L9.99977 8.99979L1.90477 0.904789C1.7361 0.736859 1.50778 0.642578 1.26977 0.642578C1.03176 0.642578 0.803437 0.736859 0.634769 0.904789Z" fill="#F24822"/>
</svg>
