<svg width="8" height="14" viewBox="0 0 8 14" fill="none" xmlns="http://www.w3.org/2000/svg">
<path d="M7.5306 9.46997C7.60052 9.53964 7.656 9.62244 7.69385 9.7136C7.7317 9.80477 7.75119 9.90251 7.75119 10.0012C7.75119 10.0999 7.7317 10.1977 7.69385 10.2888C7.656 10.38 7.60052 10.4628 7.5306 10.5325L4.5306 13.5325C4.46092 13.6024 4.37813 13.6579 4.28696 13.6957C4.1958 13.7336 4.09806 13.7531 3.99935 13.7531C3.90064 13.7531 3.8029 13.7336 3.71173 13.6957C3.62057 13.6579 3.53778 13.6024 3.4681 13.5325L0.468098 10.5325C0.327201 10.3916 0.248047 10.2005 0.248047 10.0012C0.248047 9.80196 0.327201 9.61086 0.468098 9.46997C0.608994 9.32907 0.80009 9.24992 0.999348 9.24992C1.19861 9.24992 1.3897 9.32907 1.5306 9.46997L3.99997 11.9381L6.46935 9.46809C6.53913 9.39848 6.62194 9.34331 6.71306 9.30573C6.80417 9.26814 6.9018 9.24889 7.00036 9.24906C7.09892 9.24924 7.19648 9.26884 7.28747 9.30674C7.37845 9.34464 7.46107 9.40011 7.5306 9.46997ZM1.5306 4.53247L3.99997 2.06309L6.46935 4.53309C6.61024 4.67399 6.80134 4.75314 7.0006 4.75314C7.19985 4.75314 7.39095 4.67399 7.53185 4.53309C7.67274 4.39219 7.7519 4.2011 7.7519 4.00184C7.7519 3.80258 7.67274 3.61149 7.53185 3.47059L4.53185 0.470591C4.46217 0.400671 4.37938 0.345194 4.28821 0.30734C4.19705 0.269486 4.09931 0.25 4.0006 0.25C3.90189 0.25 3.80415 0.269486 3.71298 0.30734C3.62182 0.345194 3.53903 0.400671 3.46935 0.470591L0.469348 3.47059C0.328452 3.61149 0.249297 3.80258 0.249297 4.00184C0.249297 4.2011 0.328452 4.39219 0.469348 4.53309C0.610244 4.67399 0.801341 4.75314 1.0006 4.75314C1.19986 4.75314 1.39095 4.67399 1.53185 4.53309L1.5306 4.53247Z" fill="white"/>
</svg>
