<svg width="14" height="20" viewBox="0 0 14 20" fill="none" xmlns="http://www.w3.org/2000/svg">
<path d="M14 15C14 12.962 12.812 11.164 11 10.08V3H11.5C11.8978 3 12.2794 2.84196 12.5607 2.56066C12.842 2.27936 13 1.89782 13 1.5C13 1.10218 12.842 0.720644 12.5607 0.43934C12.2794 0.158035 11.8978 5.92805e-09 11.5 0H2.5C2.10218 5.92805e-09 1.72064 0.158035 1.43934 0.43934C1.15804 0.720644 1 1.10218 1 1.5C1 1.89782 1.15804 2.27936 1.43934 2.56066C1.72064 2.84196 2.10218 3 2.5 3H3V10.08C1.188 11.164 0 12.962 0 15H6V19C6 19.55 6.45 20 7 20C7.55 20 8 19.55 8 19V15H14Z" fill="#F24822"/>
</svg>
