<svg width="91" height="91" viewBox="0 0 91 91" fill="none" xmlns="http://www.w3.org/2000/svg">
<path d="M13.8906 78.2276C9.5449 74.0304 6.07861 69.0097 3.694 63.4585C1.30939 57.9073 0.0542166 51.9368 0.00171793 45.8954C-0.0507807 39.8539 1.10045 33.8625 3.38823 28.2707C5.67601 22.6789 9.05452 17.5988 13.3266 13.3266C17.5988 9.05452 22.6789 5.67601 28.2707 3.38823C33.8625 1.10045 39.8539 -0.0507807 45.8954 0.00171793C51.9368 0.0542166 57.9073 1.30939 63.4585 3.694C69.0097 6.07861 74.0304 9.5449 78.2276 13.8906C86.5158 22.472 91.102 33.9654 90.9983 45.8954C90.8946 57.8253 86.1094 69.2373 77.6734 77.6734C69.2373 86.1094 57.8253 90.8946 45.8954 90.9983C33.9654 91.102 22.472 86.5158 13.8906 78.2276ZM71.8121 71.8121C78.6422 64.982 82.4794 55.7184 82.4794 46.0591C82.4794 36.3999 78.6422 27.1362 71.8121 20.3061C64.982 13.476 55.7184 9.63887 46.0591 9.63887C36.3999 9.63887 27.1362 13.476 20.3061 20.3061C13.476 27.1362 9.63887 36.3999 9.63887 46.0591C9.63887 55.7184 13.476 64.982 20.3061 71.8121C27.1362 78.6422 36.3999 82.4794 46.0591 82.4794C55.7184 82.4794 64.982 78.6422 71.8121 71.8121ZM41.5091 23.3091H50.6091V50.6091H41.5091V23.3091ZM41.5091 59.7091H50.6091V68.8091H41.5091V59.7091Z" fill="#F24822"/>
</svg>
