<svg width="69" height="67" viewBox="0 0 69 67" fill="none" xmlns="http://www.w3.org/2000/svg">
<g clip-path="url(#clip0_1092_1711)">
<path d="M33.8584 1.74966C33.2876 1.77842 32.7283 1.91996 32.2133 2.16596L9.76465 12.8922C9.18363 13.1696 8.67311 13.5734 8.271 14.0734C7.8689 14.5734 7.58554 15.1569 7.44199 15.7804L1.90375 39.8742C1.77586 40.4293 1.76155 41.0042 1.86166 41.5649C1.96177 42.1256 2.17427 42.6607 2.48657 43.1386C2.5623 43.2554 2.64374 43.3684 2.73061 43.4773L18.2687 62.7965C18.6709 63.2964 19.1814 63.7001 19.7625 63.9774C20.3435 64.2548 20.9801 64.3987 21.6249 64.3986L46.5427 64.3928C47.1872 64.3933 47.8237 64.2498 48.4047 63.9729C48.9857 63.6961 49.4964 63.293 49.8989 62.7937L65.4312 43.4716C65.8336 42.9715 66.1172 42.3878 66.2608 41.764C66.4045 41.1402 66.4045 40.4923 66.2609 39.8685L60.7141 15.7747C60.5705 15.1511 60.2872 14.5677 59.8851 14.0677C59.483 13.5676 58.9725 13.1639 58.3914 12.8864L35.9399 2.16596C35.2922 1.8565 34.5764 1.71336 33.8584 1.74966Z" fill="#E519E9"/>
<path d="M33.8462 0.00593417C33.2443 0.0374638 32.6548 0.187777 32.1121 0.448075L8.41172 11.7686C7.79838 12.0615 7.25946 12.4877 6.83498 13.0156C6.41051 13.5435 6.11139 14.1594 5.95985 14.8176L0.114424 40.2521C-0.0209892 40.8384 -0.0363846 41.4457 0.0691517 42.038C0.174688 42.6303 0.399006 43.1955 0.728821 43.7003C0.809055 43.823 0.895283 43.9418 0.9872 44.0563L17.3894 64.4521C17.814 64.9798 18.353 65.4058 18.9663 65.6986C19.5797 65.9913 20.2516 66.1433 20.9323 66.1432L47.2368 66.1374C47.9172 66.1379 48.589 65.9864 49.2023 65.6941C49.8157 65.4019 50.3547 64.9764 50.7796 64.4492L67.1761 44.0505C67.6005 43.5228 67.8996 42.907 68.0512 42.249C68.2028 41.5909 68.203 40.9074 68.0518 40.2493L62.1977 14.8119C62.0458 14.1542 61.7465 13.5388 61.3221 13.0115C60.8976 12.4841 60.3589 12.0584 59.7459 11.7657L36.0455 0.445204C35.3611 0.118287 34.6049 -0.0327647 33.8462 0.00593417ZM33.8577 1.75153C34.5758 1.71522 35.2915 1.85837 35.9392 2.16783L58.3907 12.8883C58.9718 13.1658 59.4823 13.5695 59.8844 14.0695C60.2865 14.5696 60.5699 15.153 60.7134 15.7765L66.2603 39.8703C66.4038 40.4941 66.4038 41.142 66.2602 41.7658C66.1165 42.3896 65.8329 42.9733 65.4305 43.4734L49.8982 62.7955C49.4957 63.2949 48.985 63.698 48.404 63.9748C47.823 64.2517 47.1866 64.3952 46.542 64.3947L21.6242 64.4005C20.9794 64.4006 20.3428 64.2566 19.7618 63.9793C19.1808 63.7019 18.6702 63.2983 18.268 62.7984L2.72994 43.4792C2.64307 43.3703 2.56163 43.2572 2.4859 43.1404C2.1736 42.6626 1.9611 42.1275 1.86099 41.5668C1.76088 41.0061 1.7752 40.4312 1.90308 39.8761L7.44131 15.7823C7.58487 15.1588 7.86823 14.5753 8.27033 14.0753C8.67244 13.5753 9.18296 13.1715 9.76398 12.8941L32.2126 2.16785C32.7276 1.92184 33.2869 1.78028 33.8577 1.75153Z" fill="white"/>
<path d="M29.3416 58.5568C28.7962 58.5568 28.3265 58.428 27.9326 58.1704C27.5386 57.9128 27.2356 57.558 27.0235 57.106C26.8113 56.654 26.7053 56.1376 26.7053 55.5568C26.7053 54.9658 26.8139 54.4444 27.031 53.9924C27.2507 53.5378 27.5563 53.183 27.9477 52.928C28.3416 52.6704 28.8012 52.5416 29.3265 52.5416C29.7356 52.5416 30.1043 52.6174 30.4326 52.7689C30.7608 52.9204 31.0298 53.1325 31.2394 53.4052C31.449 53.678 31.579 53.9962 31.6295 54.3598H30.7356C30.6674 54.0946 30.5159 53.8598 30.281 53.6552C30.0487 53.4482 29.7356 53.3446 29.3416 53.3446C28.9932 53.3446 28.6876 53.4355 28.425 53.6174C28.1649 53.7967 27.9616 54.0504 27.8151 54.3787C27.6712 54.7045 27.5992 55.0871 27.5992 55.5265C27.5992 55.976 27.6699 56.3674 27.8113 56.7007C27.9553 57.034 28.1573 57.2929 28.4174 57.4772C28.68 57.6616 28.9881 57.7537 29.3416 57.7537C29.574 57.7537 29.7848 57.7133 29.9742 57.6325C30.1636 57.5517 30.324 57.4355 30.4553 57.284C30.5866 57.1325 30.68 56.9507 30.7356 56.7386H31.6295C31.579 57.082 31.454 57.3914 31.2545 57.6666C31.0576 57.9393 30.7962 58.1565 30.4704 58.3181C30.1472 58.4772 29.7709 58.5568 29.3416 58.5568ZM32.9363 58.4355V52.6174H33.8V53.5265H33.8757C33.997 53.2158 34.1927 52.9747 34.4629 52.803C34.7331 52.6287 35.0576 52.5416 35.4363 52.5416C35.8202 52.5416 36.1396 52.6287 36.3947 52.803C36.6523 52.9747 36.853 53.2158 36.997 53.5265H37.0576C37.2065 53.226 37.43 52.9873 37.728 52.8105C38.026 52.6313 38.3833 52.5416 38.8 52.5416C39.3202 52.5416 39.7457 52.7045 40.0765 53.0302C40.4073 53.3535 40.5727 53.8573 40.5727 54.5416V58.4355H39.6788V54.5416C39.6788 54.1123 39.5613 53.8055 39.3265 53.6212C39.0916 53.4368 38.8151 53.3446 38.497 53.3446C38.0879 53.3446 37.7709 53.4684 37.5462 53.7158C37.3214 53.9608 37.2091 54.2714 37.2091 54.6477V58.4355H36.3V54.4507C36.3 54.1199 36.1927 53.8535 35.978 53.6515C35.7634 53.4469 35.4869 53.3446 35.1485 53.3446C34.9161 53.3446 34.699 53.4065 34.497 53.5302C34.2975 53.654 34.1358 53.8257 34.0121 54.0454C33.8909 54.2626 33.8303 54.5138 33.8303 54.7992V58.4355H32.9363Z" fill="white"/>
<path d="M27.8252 19.3398H49.8409" stroke="white" stroke-width="3" stroke-miterlimit="10" stroke-linejoin="round"/>
<path d="M18.324 19.3398H23.8358" stroke="white" stroke-width="3" stroke-miterlimit="10" stroke-linejoin="round"/>
<path d="M35.8252 27.3398H49.8409" stroke="white" stroke-width="3" stroke-miterlimit="10" stroke-linejoin="round"/>
<path d="M26.324 27.3398H31.8358" stroke="white" stroke-width="3" stroke-miterlimit="10" stroke-linejoin="round"/>
<path d="M35.8252 35.3398H49.8409" stroke="white" stroke-width="3" stroke-miterlimit="10" stroke-linejoin="round"/>
<path d="M26.324 35.3398H31.8358" stroke="white" stroke-width="3" stroke-miterlimit="10" stroke-linejoin="round"/>
<path d="M27.8252 43.3398H49.8409" stroke="white" stroke-width="3" stroke-miterlimit="10" stroke-linejoin="round"/>
<path d="M18.324 43.3398H23.8358" stroke="white" stroke-width="3" stroke-miterlimit="10" stroke-linejoin="round"/>
</g>
<defs>
<clipPath id="clip0_1092_1711">
<rect width="68.165" height="66.1432" fill="white"/>
</clipPath>
</defs>
</svg>
