<svg width="69" height="67" viewBox="0 0 69 67" fill="none" xmlns="http://www.w3.org/2000/svg">
<g clip-path="url(#clip0_1092_1727)">
<path d="M33.8584 1.74966C33.2876 1.77842 32.7283 1.91996 32.2133 2.16596L9.76465 12.8922C9.18363 13.1696 8.67311 13.5734 8.271 14.0734C7.8689 14.5734 7.58554 15.1569 7.44199 15.7804L1.90375 39.8742C1.77586 40.4293 1.76155 41.0042 1.86166 41.5649C1.96177 42.1256 2.17427 42.6607 2.48657 43.1386C2.5623 43.2554 2.64374 43.3684 2.73061 43.4773L18.2687 62.7965C18.6709 63.2964 19.1814 63.7001 19.7625 63.9774C20.3435 64.2548 20.9801 64.3987 21.6249 64.3986L46.5427 64.3928C47.1872 64.3933 47.8237 64.2498 48.4047 63.9729C48.9857 63.6961 49.4964 63.293 49.8989 62.7937L65.4312 43.4716C65.8336 42.9715 66.1172 42.3878 66.2608 41.764C66.4045 41.1402 66.4045 40.4923 66.2609 39.8685L60.7141 15.7747C60.5705 15.1511 60.2872 14.5677 59.8851 14.0677C59.483 13.5676 58.9725 13.1639 58.3914 12.8864L35.9399 2.16596C35.2922 1.8565 34.5764 1.71336 33.8584 1.74966Z" fill="#21E517"/>
<path d="M33.8462 0.00593417C33.2443 0.0374638 32.6548 0.187777 32.1121 0.448075L8.41172 11.7686C7.79838 12.0615 7.25946 12.4877 6.83498 13.0156C6.41051 13.5435 6.11139 14.1594 5.95985 14.8176L0.114424 40.2521C-0.0209892 40.8384 -0.0363846 41.4457 0.0691517 42.038C0.174688 42.6303 0.399006 43.1955 0.728821 43.7003C0.809055 43.823 0.895283 43.9418 0.9872 44.0563L17.3894 64.4521C17.814 64.9798 18.353 65.4058 18.9663 65.6986C19.5797 65.9913 20.2516 66.1433 20.9323 66.1432L47.2368 66.1374C47.9172 66.1379 48.589 65.9864 49.2023 65.6941C49.8157 65.4019 50.3547 64.9764 50.7796 64.4492L67.1761 44.0505C67.6005 43.5228 67.8996 42.907 68.0512 42.249C68.2028 41.5909 68.203 40.9074 68.0518 40.2493L62.1977 14.8119C62.0458 14.1542 61.7465 13.5388 61.3221 13.0115C60.8976 12.4841 60.3589 12.0584 59.7459 11.7657L36.0455 0.445204C35.3611 0.118287 34.6049 -0.0327647 33.8462 0.00593417ZM33.8577 1.75153C34.5758 1.71522 35.2915 1.85837 35.9392 2.16783L58.3907 12.8883C58.9718 13.1658 59.4823 13.5695 59.8844 14.0695C60.2865 14.5696 60.5699 15.153 60.7134 15.7765L66.2603 39.8703C66.4038 40.4941 66.4038 41.142 66.2602 41.7658C66.1165 42.3896 65.8329 42.9733 65.4305 43.4734L49.8982 62.7955C49.4957 63.2949 48.985 63.698 48.404 63.9748C47.823 64.2517 47.1866 64.3952 46.542 64.3947L21.6242 64.4005C20.9794 64.4006 20.3428 64.2566 19.7618 63.9793C19.1808 63.7019 18.6702 63.2983 18.268 62.7984L2.72994 43.4792C2.64307 43.3703 2.56163 43.2572 2.4859 43.1404C2.1736 42.6626 1.9611 42.1275 1.86099 41.5668C1.76088 41.0061 1.7752 40.4312 1.90308 39.8761L7.44131 15.7823C7.58487 15.1588 7.86823 14.5753 8.27033 14.0753C8.67244 13.5753 9.18296 13.1715 9.76398 12.8941L32.2126 2.16785C32.7276 1.92184 33.2869 1.78028 33.8577 1.75153Z" fill="white"/>
<path d="M24.8434 60.6174V52.6174H25.707V53.5416H25.8131C25.8788 53.4406 25.9697 53.3118 26.0858 53.1552C26.2045 52.9962 26.3737 52.8547 26.5934 52.731C26.8156 52.6047 27.1161 52.5416 27.4949 52.5416C27.9848 52.5416 28.4166 52.6641 28.7904 52.909C29.1641 53.154 29.4558 53.5012 29.6654 53.9507C29.875 54.4002 29.9798 54.9305 29.9798 55.5416C29.9798 56.1578 29.875 56.6919 29.6654 57.1439C29.4558 57.5934 29.1654 57.9419 28.7942 58.1893C28.423 58.4343 27.9949 58.5568 27.5101 58.5568C27.1363 58.5568 26.8371 58.4949 26.6123 58.3712C26.3876 58.2449 26.2146 58.1022 26.0934 57.9431C25.9722 57.7815 25.8788 57.6477 25.8131 57.5416H25.7373V60.6174H24.8434ZM25.7222 55.5265C25.7222 55.9658 25.7866 56.3535 25.9154 56.6893C26.0442 57.0227 26.2323 57.284 26.4798 57.4734C26.7272 57.6603 27.0303 57.7537 27.3889 57.7537C27.7626 57.7537 28.0745 57.6552 28.3245 57.4583C28.577 57.2588 28.7664 56.9911 28.8927 56.6552C29.0214 56.3169 29.0858 55.9406 29.0858 55.5265C29.0858 55.1174 29.0227 54.7487 28.8964 54.4204C28.7727 54.0896 28.5846 53.8282 28.332 53.6363C28.082 53.4419 27.7677 53.3446 27.3889 53.3446C27.0252 53.3446 26.7197 53.4368 26.4722 53.6212C26.2247 53.803 26.0379 54.058 25.9116 54.3863C25.7853 54.7121 25.7222 55.0921 25.7222 55.5265ZM33.707 58.5568C33.1818 58.5568 32.7209 58.4318 32.3245 58.1818C31.9305 57.9318 31.6224 57.582 31.4002 57.1325C31.1805 56.683 31.0707 56.1578 31.0707 55.5568C31.0707 54.9507 31.1805 54.4217 31.4002 53.9696C31.6224 53.5176 31.9305 53.1666 32.3245 52.9166C32.7209 52.6666 33.1818 52.5416 33.707 52.5416C34.2323 52.5416 34.6919 52.6666 35.0858 52.9166C35.4823 53.1666 35.7904 53.5176 36.0101 53.9696C36.2323 54.4217 36.3434 54.9507 36.3434 55.5568C36.3434 56.1578 36.2323 56.683 36.0101 57.1325C35.7904 57.582 35.4823 57.9318 35.0858 58.1818C34.6919 58.4318 34.2323 58.5568 33.707 58.5568ZM33.707 57.7537C34.106 57.7537 34.4343 57.6515 34.6919 57.4469C34.9495 57.2424 35.1401 56.9734 35.2639 56.6401C35.3876 56.3068 35.4495 55.9456 35.4495 55.5568C35.4495 55.1679 35.3876 54.8055 35.2639 54.4696C35.1401 54.1338 34.9495 53.8623 34.6919 53.6552C34.4343 53.4482 34.106 53.3446 33.707 53.3446C33.3081 53.3446 32.9798 53.4482 32.7222 53.6552C32.4646 53.8623 32.274 54.1338 32.1502 54.4696C32.0265 54.8055 31.9646 55.1679 31.9646 55.5568C31.9646 55.9456 32.0265 56.3068 32.1502 56.6401C32.274 56.9734 32.4646 57.2424 32.7222 57.4469C32.9798 57.6515 33.3081 57.7537 33.707 57.7537ZM39.905 58.5568C39.4201 58.5568 38.9921 58.4343 38.6209 58.1893C38.2497 57.9419 37.9593 57.5934 37.7497 57.1439C37.5401 56.6919 37.4353 56.1578 37.4353 55.5416C37.4353 54.9305 37.5401 54.4002 37.7497 53.9507C37.9593 53.5012 38.2509 53.154 38.6247 52.909C38.9984 52.6641 39.4302 52.5416 39.9201 52.5416C40.2989 52.5416 40.5981 52.6047 40.8178 52.731C41.0401 52.8547 41.2093 52.9962 41.3254 53.1552C41.4441 53.3118 41.5363 53.4406 41.6019 53.5416H41.6777V50.678H42.5716V58.4355H41.708V57.5416H41.6019C41.5363 57.6477 41.4428 57.7815 41.3216 57.9431C41.2004 58.1022 41.0274 58.2449 40.8027 58.3712C40.5779 58.4949 40.2787 58.5568 39.905 58.5568ZM40.0262 57.7537C40.3848 57.7537 40.6878 57.6603 40.9353 57.4734C41.1827 57.284 41.3709 57.0227 41.4997 56.6893C41.6284 56.3535 41.6928 55.9658 41.6928 55.5265C41.6928 55.0921 41.6297 54.7121 41.5034 54.3863C41.3772 54.058 41.1903 53.803 40.9428 53.6212C40.6954 53.4368 40.3898 53.3446 40.0262 53.3446C39.6474 53.3446 39.3317 53.4419 39.0792 53.6363C38.8292 53.8282 38.6411 54.0896 38.5148 54.4204C38.3911 54.7487 38.3292 55.1174 38.3292 55.5265C38.3292 55.9406 38.3923 56.3169 38.5186 56.6552C38.6474 56.9911 38.8368 57.2588 39.0868 57.4583C39.3393 57.6552 39.6524 57.7537 40.0262 57.7537Z" fill="white"/>
<path fill-rule="evenodd" clip-rule="evenodd" d="M20.3975 22.156L34.0825 18.1875L47.7676 22.156L34.0825 26.1245L20.3975 22.156Z" fill="white"/>
<path fill-rule="evenodd" clip-rule="evenodd" d="M20.3975 23.6758V38.2375L33.1481 45.3004L33.2112 27.4868L20.3975 23.6758Z" fill="white"/>
<path fill-rule="evenodd" clip-rule="evenodd" d="M47.7676 23.6758V38.2375L35.017 45.3004L34.9539 27.4868L47.7676 23.6758Z" fill="white"/>
</g>
<defs>
<clipPath id="clip0_1092_1727">
<rect width="68.165" height="66.1432" fill="white"/>
</clipPath>
</defs>
</svg>
