<svg width="15" height="10" viewBox="0 0 15 10" fill="none" xmlns="http://www.w3.org/2000/svg">
<path d="M5.45255 0.287294C5.41217 0.201396 5.34817 0.128765 5.26804 0.0778904C5.18792 0.027016 5.09496 0 5.00005 0C4.90513 0 4.81218 0.027016 4.73205 0.0778904C4.65192 0.128765 4.58792 0.201396 4.54755 0.287294L0.547545 8.78729C0.519599 8.84672 0.503629 8.91106 0.50055 8.97666C0.497471 9.04225 0.507341 9.10781 0.529598 9.16959C0.574549 9.29436 0.667223 9.39616 0.787233 9.45261C0.907243 9.50905 1.04476 9.5155 1.16953 9.47055C1.2943 9.4256 1.3961 9.33293 1.45255 9.21292L2.4938 7.00042H7.5063L8.54755 9.21292C8.57549 9.27234 8.61487 9.32568 8.66343 9.36988C8.71199 9.41409 8.76878 9.4483 8.83056 9.47055C8.89234 9.49281 8.9579 9.50268 9.02349 9.4996C9.08909 9.49652 9.15344 9.48055 9.21286 9.45261C9.27228 9.42466 9.32562 9.38528 9.36982 9.33672C9.41403 9.28816 9.44824 9.23137 9.47049 9.16959C9.49275 9.10781 9.50262 9.04225 9.49954 8.97666C9.49646 8.91106 9.48049 8.84672 9.45255 8.78729L5.45255 0.287294ZM2.96442 6.00042L5.00005 1.67479L7.03567 6.00042H2.96442ZM12.5 3.00042C11.7025 3.00042 11.0794 3.21729 10.6482 3.64542C10.5579 3.73954 10.5079 3.86522 10.509 3.99564C10.5101 4.12606 10.5621 4.2509 10.6539 4.34353C10.7457 4.43616 10.8701 4.48925 11.0005 4.49147C11.1309 4.49369 11.257 4.44487 11.3519 4.35542C11.5894 4.11979 11.9769 4.00042 12.5 4.00042C13.3269 4.00042 14 4.56292 14 5.25042V5.45167C13.5563 5.15481 13.0339 4.99764 12.5 5.00042C11.1213 5.00042 10 6.00979 10 7.25042C10 8.49104 11.1213 9.50042 12.5 9.50042C13.0341 9.50276 13.5566 9.34492 14 9.04729C14.0063 9.1799 14.0649 9.30461 14.1631 9.39398C14.2612 9.48335 14.3909 9.53007 14.5235 9.52386C14.6561 9.51764 14.7808 9.459 14.8702 9.36084C14.9595 9.26267 15.0063 9.13303 15 9.00042V5.25042C15 4.00979 13.8788 3.00042 12.5 3.00042ZM12.5 8.50042C11.6732 8.50042 11 7.93792 11 7.25042C11 6.56292 11.6732 6.00042 12.5 6.00042C13.3269 6.00042 14 6.56292 14 7.25042C14 7.93792 13.3269 8.50042 12.5 8.50042Z" fill="white"/>
</svg>
