<svg width="16" height="16" viewBox="0 0 16 16" fill="none" xmlns="http://www.w3.org/2000/svg">
<path fill-rule="evenodd" clip-rule="evenodd" d="M7.77892 0.0514925C7.84767 0.0176178 7.92328 0 7.99992 0C8.07656 0 8.15218 0.0176178 8.22092 0.0514925L14.2359 3.02149C14.303 3.05458 14.3619 3.1023 14.4081 3.16114C14.4543 3.21999 14.4867 3.28845 14.5029 3.36149L15.9879 10.0375C16.0039 10.1092 16.0038 10.1836 15.9877 10.2554C15.9717 10.3271 15.94 10.3944 15.8949 10.4525L11.7329 15.8065C11.6861 15.8666 11.6262 15.9153 11.5578 15.9487C11.4893 15.9822 11.4141 15.9995 11.3379 15.9995H4.66192C4.58573 15.9995 4.51053 15.9822 4.44207 15.9487C4.37362 15.9153 4.31371 15.8666 4.26692 15.8065L0.104924 10.4525C0.059869 10.3944 0.0281755 10.3271 0.0121009 10.2554C-0.00397376 10.1836 -0.00403413 10.1092 0.0119241 10.0375L1.49692 3.36149C1.51315 3.28845 1.54557 3.21999 1.59178 3.16114C1.63799 3.1023 1.69682 3.05458 1.76392 3.02149L7.77892 0.0514925Z" fill="white"/>
</svg>
