<svg width="20" height="20" viewBox="0 0 20 20" fill="none" xmlns="http://www.w3.org/2000/svg">
<g clip-path="url(#clip0_416_8000)">
<path d="M0.833496 0.833008V9.16634H19.1668V0.833008H0.833496ZM10.8335 5.83301H3.3335V4.16634H10.8335V5.83301ZM13.3335 5.83301C13.1687 5.83301 13.0076 5.78413 12.8705 5.69257C12.7335 5.601 12.6267 5.47085 12.5636 5.31858C12.5005 5.16631 12.484 4.99875 12.5162 4.8371C12.5483 4.67545 12.6277 4.52696 12.7442 4.41042C12.8608 4.29388 13.0093 4.21451 13.1709 4.18235C13.3326 4.1502 13.5001 4.1667 13.6524 4.22977C13.8047 4.29285 13.9348 4.39966 14.0264 4.5367C14.118 4.67374 14.1668 4.83486 14.1668 4.99967C14.1668 5.22069 14.079 5.43265 13.9228 5.58893C13.7665 5.74521 13.5545 5.83301 13.3335 5.83301ZM15.8335 5.83301C15.6687 5.83301 15.5076 5.78413 15.3705 5.69257C15.2335 5.601 15.1267 5.47085 15.0636 5.31858C15.0005 5.16631 14.984 4.99875 15.0162 4.8371C15.0483 4.67545 15.1277 4.52696 15.2442 4.41042C15.3608 4.29388 15.5093 4.21451 15.6709 4.18235C15.8326 4.1502 16.0001 4.1667 16.1524 4.22977C16.3047 4.29285 16.4348 4.39966 16.5264 4.5367C16.618 4.67374 16.6668 4.83486 16.6668 4.99967C16.6668 5.22069 16.579 5.43265 16.4228 5.58893C16.2665 5.74521 16.0545 5.83301 15.8335 5.83301ZM18.9085 15.308L19.8585 14.4747L19.0252 13.033L17.8168 13.4413C17.5488 13.2166 17.2444 13.039 16.9168 12.9163L16.6668 11.6663H15.0002L14.7502 12.908C14.4226 13.0307 14.1182 13.2082 13.8502 13.433L12.6418 13.0247L11.8085 14.4663L12.7585 15.2997C12.6911 15.6464 12.6911 16.0029 12.7585 16.3497L11.8085 17.183L12.6418 18.6247L13.8502 18.2163C14.1182 18.4411 14.4226 18.6187 14.7502 18.7413L15.0002 19.9997H16.6668L16.9168 18.758C17.2444 18.6353 17.5488 18.4578 17.8168 18.233L19.0252 18.6413L19.8585 17.1997L18.9085 16.3663C18.975 16.0167 18.975 15.6577 18.9085 15.308ZM15.8335 17.4997C15.5039 17.4997 15.1816 17.4019 14.9075 17.2188C14.6335 17.0357 14.4198 16.7754 14.2937 16.4708C14.1676 16.1663 14.1345 15.8312 14.1989 15.5079C14.2632 15.1846 14.4219 14.8876 14.655 14.6545C14.8881 14.4214 15.185 14.2627 15.5083 14.1984C15.8316 14.1341 16.1668 14.1671 16.4713 14.2932C16.7758 14.4194 17.0361 14.633 17.2193 14.9071C17.4024 15.1811 17.5002 15.5034 17.5002 15.833C17.4988 16.2746 17.3228 16.6978 17.0106 17.0101C16.6983 17.3223 16.2751 17.4984 15.8335 17.4997Z" fill="white"/>
<path d="M10.0002 15.833H3.3335V14.1663H10.2452C10.6633 12.77 11.5891 11.5809 12.8402 10.833H0.833496V19.1663H11.0502C10.3658 18.1896 9.99913 17.0256 10.0002 15.833Z" fill="white"/>
</g>
<defs>
<clipPath id="clip0_416_8000">
<rect width="20" height="20" fill="white"/>
</clipPath>
</defs>
</svg>
