<svg width="20" height="20" viewBox="0 0 20 20" fill="none" xmlns="http://www.w3.org/2000/svg">
<path d="M13.6332 11.6665C13.6998 11.1165 13.7498 10.5665 13.7498 9.99984C13.7498 9.43317 13.6998 8.88317 13.6332 8.33317H16.4498C16.5832 8.8665 16.6665 9.42484 16.6665 9.99984C16.6665 10.5748 16.5832 11.1332 16.4498 11.6665M12.1582 16.2998C12.6582 15.3748 13.0415 14.3748 13.3082 13.3332H15.7665C14.9591 14.7234 13.6783 15.7765 12.1582 16.2998ZM11.9498 11.6665H8.04984C7.9665 11.1165 7.9165 10.5665 7.9165 9.99984C7.9165 9.43317 7.9665 8.87484 8.04984 8.33317H11.9498C12.0248 8.87484 12.0832 9.43317 12.0832 9.99984C12.0832 10.5665 12.0248 11.1165 11.9498 11.6665ZM9.99984 16.6332C9.30817 15.6332 8.74984 14.5248 8.40817 13.3332H11.5915C11.2498 14.5248 10.6915 15.6332 9.99984 16.6332ZM6.6665 6.6665H4.23317C5.03204 5.27237 6.31205 4.21754 7.83317 3.69984C7.33317 4.62484 6.95817 5.62484 6.6665 6.6665ZM4.23317 13.3332H6.6665C6.95817 14.3748 7.33317 15.3748 7.83317 16.2998C6.31506 15.7768 5.03674 14.7233 4.23317 13.3332ZM3.54984 11.6665C3.4165 11.1332 3.33317 10.5748 3.33317 9.99984C3.33317 9.42484 3.4165 8.8665 3.54984 8.33317H6.3665C6.29984 8.88317 6.24984 9.43317 6.24984 9.99984C6.24984 10.5665 6.29984 11.1165 6.3665 11.6665M9.99984 3.35817C10.6915 4.35817 11.2498 5.47484 11.5915 6.6665H8.40817C8.74984 5.47484 9.30817 4.35817 9.99984 3.35817ZM15.7665 6.6665H13.3082C13.047 5.63451 12.6608 4.63826 12.1582 3.69984C13.6915 4.22484 14.9665 5.28317 15.7665 6.6665ZM9.99984 1.6665C5.3915 1.6665 1.6665 5.4165 1.6665 9.99984C1.6665 12.21 2.54448 14.3296 4.10728 15.8924C4.8811 16.6662 5.79976 17.28 6.81081 17.6988C7.82185 18.1176 8.90549 18.3332 9.99984 18.3332C12.21 18.3332 14.3296 17.4552 15.8924 15.8924C17.4552 14.3296 18.3332 12.21 18.3332 9.99984C18.3332 8.90549 18.1176 7.82185 17.6988 6.81081C17.28 5.79976 16.6662 4.8811 15.8924 4.10728C15.1186 3.33346 14.1999 2.71963 13.1889 2.30084C12.1778 1.88205 11.0942 1.6665 9.99984 1.6665Z" fill="#F5F5F5"/>
</svg>
