<svg width="20" height="20" viewBox="0 0 20 20" fill="none" xmlns="http://www.w3.org/2000/svg">
<path d="M3.33333 7.99114C3.33273 6.74357 3.76359 5.52682 4.56606 4.50994C5.36853 3.49306 6.50274 2.72656 7.81111 2.31695C7.76044 2.03105 7.77925 1.73865 7.86623 1.45993C7.9532 1.18121 8.10628 0.9228 8.3149 0.702535C8.52352 0.482269 8.78271 0.30539 9.0746 0.184101C9.36648 0.0628115 9.6841 0 10.0056 0C10.327 0 10.6446 0.0628115 10.9365 0.184101C11.2284 0.30539 11.4876 0.482269 11.6962 0.702535C11.9048 0.9228 12.0579 1.18121 12.1449 1.45993C12.2319 1.73865 12.2507 2.03105 12.2 2.31695C13.5063 2.72824 14.6381 3.49546 15.4385 4.5122C16.2388 5.52893 16.6681 6.74479 16.6667 7.99114V13.9956L20 15.997V16.9978H0V15.997L3.33333 13.9956V7.99114ZM12.2222 17.9985C12.2222 18.5293 11.9881 19.0384 11.5713 19.4138C11.1546 19.7891 10.5894 20 10 20C9.41063 20 8.8454 19.7891 8.42865 19.4138C8.01191 19.0384 7.77778 18.5293 7.77778 17.9985H12.2222Z" fill="white"/>
</svg>
