<svg width="16" height="14" viewBox="0 0 16 14" fill="none" xmlns="http://www.w3.org/2000/svg">
<path d="M5.50002 12.8333H13.8334V11.1667H5.50002V12.8333ZM5.50002 7.83333H10.5V6.16667H5.50002V7.83333ZM5.50002 1.16667V2.83333H15.5V1.16667H5.50002ZM2.16669 0.75C2.00248 0.750055 1.83989 0.782452 1.68821 0.845342C1.53652 0.908232 1.3987 1.00038 1.28263 1.11653C1.16656 1.23268 1.0745 1.37056 1.01171 1.52229C0.948921 1.67402 0.916632 1.83663 0.916687 2.00083C0.916742 2.16504 0.949139 2.32763 1.01203 2.47932C1.07492 2.631 1.16707 2.76882 1.28322 2.88489C1.39937 3.00096 1.53725 3.09302 1.68897 3.15581C1.8407 3.2186 2.00331 3.25089 2.16752 3.25083C2.49915 3.25072 2.81716 3.11888 3.05158 2.8843C3.286 2.64972 3.41763 2.33163 3.41752 2C3.41741 1.66837 3.28556 1.35036 3.05099 1.11594C2.81641 0.881524 2.49832 0.74989 2.16669 0.75ZM2.16669 5.75C2.00248 5.75005 1.83989 5.78245 1.68821 5.84534C1.53652 5.90823 1.3987 6.00038 1.28263 6.11653C1.16656 6.23268 1.0745 6.37056 1.01171 6.52229C0.948921 6.67402 0.916632 6.83663 0.916687 7.00083C0.916742 7.16504 0.949139 7.32763 1.01203 7.47931C1.07492 7.631 1.16707 7.76882 1.28322 7.88489C1.39937 8.00096 1.53725 8.09302 1.68897 8.15581C1.8407 8.2186 2.00331 8.25089 2.16752 8.25083C2.49915 8.25072 2.81716 8.11888 3.05158 7.8843C3.286 7.64972 3.41763 7.33163 3.41752 7C3.41741 6.66837 3.28556 6.35036 3.05099 6.11594C2.81641 5.88152 2.49832 5.74989 2.16669 5.75ZM2.16669 10.75C2.00248 10.7501 1.83989 10.7825 1.68821 10.8453C1.53652 10.9082 1.3987 11.0004 1.28263 11.1165C1.16656 11.2327 1.0745 11.3706 1.01171 11.5223C0.948921 11.674 0.916632 11.8366 0.916687 12.0008C0.916742 12.165 0.949139 12.3276 1.01203 12.4793C1.07492 12.631 1.16707 12.7688 1.28322 12.8849C1.39937 13.001 1.53725 13.093 1.68897 13.1558C1.8407 13.2186 2.00331 13.2509 2.16752 13.2508C2.49915 13.2507 2.81716 13.1189 3.05158 12.8843C3.286 12.6497 3.41763 12.3316 3.41752 12C3.41741 11.6684 3.28556 11.3504 3.05099 11.1159C2.81641 10.8815 2.49832 10.7499 2.16669 10.75Z" fill="#F5F5F5"/>
</svg>
