<svg width="18" height="18" viewBox="0 0 18 18" fill="none" xmlns="http://www.w3.org/2000/svg">
<path d="M10.7325 0.25C10.8648 0.250004 10.9937 0.292005 11.1007 0.369953C11.2076 0.447902 11.287 0.557775 11.3275 0.68375L12.015 2.82C12.3038 2.96125 12.58 3.12 12.8438 3.29875L15.0388 2.82625C15.1682 2.79862 15.303 2.81278 15.4239 2.86669C15.5447 2.92061 15.6454 3.01149 15.7113 3.12625L17.4438 6.125C17.5099 6.2397 17.5379 6.37244 17.5238 6.50409C17.5096 6.63574 17.454 6.75949 17.365 6.8575L15.8588 8.52C15.8807 8.83879 15.8807 9.15871 15.8588 9.4775L17.365 11.1425C17.454 11.2405 17.5096 11.3643 17.5238 11.4959C17.5379 11.6276 17.5099 11.7603 17.4438 11.875L15.7113 14.875C15.6452 14.9895 15.5445 15.0802 15.4236 15.1338C15.3028 15.1875 15.168 15.2015 15.0388 15.1737L12.8438 14.7013C12.5813 14.8787 12.3038 15.0388 12.0163 15.18L11.3275 17.3162C11.287 17.4422 11.2076 17.5521 11.1007 17.63C10.9937 17.708 10.8648 17.75 10.7325 17.75H7.26751C7.13519 17.75 7.00628 17.708 6.89936 17.63C6.79243 17.5521 6.713 17.4422 6.67251 17.3162L5.98626 15.1812C5.6983 15.0404 5.42054 14.8796 5.15501 14.7L2.96126 15.1737C2.83184 15.2014 2.697 15.1872 2.57614 15.1333C2.45528 15.0794 2.35466 14.9885 2.28876 14.8738L0.556263 11.875C0.490106 11.7603 0.462084 11.6276 0.476238 11.4959C0.490391 11.3643 0.545989 11.2405 0.635013 11.1425L2.14126 9.4775C2.11944 9.15954 2.11944 8.84046 2.14126 8.5225L0.635013 6.8575C0.545989 6.75949 0.490391 6.63574 0.476238 6.50409C0.462084 6.37244 0.490106 6.2397 0.556263 6.125L2.28876 3.125C2.35484 3.01047 2.45554 2.91984 2.57639 2.86616C2.69723 2.81248 2.83198 2.79851 2.96126 2.82625L5.15501 3.3C5.42001 3.12125 5.69751 2.96 5.98626 2.81875L6.67376 0.68375C6.71412 0.558181 6.79317 0.448598 6.8996 0.370687C7.00602 0.292777 7.13437 0.250532 7.26626 0.25H10.7313H10.7325ZM10.275 1.5H7.72501L7.01501 3.70875L6.53626 3.9425C6.30091 4.05767 6.07371 4.18881 5.85626 4.335L5.41376 4.635L3.14376 4.145L1.86876 6.355L3.42501 8.0775L3.38751 8.6075C3.36955 8.86886 3.36955 9.13114 3.38751 9.3925L3.42501 9.9225L1.86626 11.645L3.14251 13.855L5.41251 13.3663L5.85501 13.665C6.07246 13.8112 6.29966 13.9423 6.53501 14.0575L7.01376 14.2913L7.72501 16.5H10.2775L10.99 14.29L11.4675 14.0575C11.7026 13.9426 11.9294 13.8115 12.1463 13.665L12.5875 13.3663L14.8588 13.855L16.1338 11.645L14.5763 9.9225L14.6138 9.3925C14.6318 9.13073 14.6318 8.86802 14.6138 8.60625L14.5763 8.07625L16.135 6.355L14.8588 4.145L12.5875 4.6325L12.1463 4.335C11.9294 4.18854 11.7026 4.05739 11.4675 3.9425L10.99 3.71L10.2763 1.5H10.275ZM9.00001 5.25C9.99458 5.25 10.9484 5.64509 11.6517 6.34835C12.3549 7.05161 12.75 8.00544 12.75 9C12.75 9.99456 12.3549 10.9484 11.6517 11.6517C10.9484 12.3549 9.99458 12.75 9.00001 12.75C8.00545 12.75 7.05162 12.3549 6.34836 11.6517C5.6451 10.9484 5.25001 9.99456 5.25001 9C5.25001 8.00544 5.6451 7.05161 6.34836 6.34835C7.05162 5.64509 8.00545 5.25 9.00001 5.25ZM9.00001 6.5C8.33697 6.5 7.70109 6.76339 7.23225 7.23223C6.76341 7.70107 6.50001 8.33696 6.50001 9C6.50001 9.66304 6.76341 10.2989 7.23225 10.7678C7.70109 11.2366 8.33697 11.5 9.00001 11.5C9.66305 11.5 10.2989 11.2366 10.7678 10.7678C11.2366 10.2989 11.5 9.66304 11.5 9C11.5 8.33696 11.2366 7.70107 10.7678 7.23223C10.2989 6.76339 9.66305 6.5 9.00001 6.5Z" fill="#F5F5F5"/>
</svg>
