<svg width="20" height="19" viewBox="0 0 20 19" fill="none" xmlns="http://www.w3.org/2000/svg">
<g filter="url(#filter0_d_416_11763)">
<path d="M11.7325 0.25C11.8648 0.250004 11.9937 0.292005 12.1007 0.369953C12.2076 0.447902 12.287 0.557775 12.3275 0.68375L13.015 2.82C13.3038 2.96125 13.58 3.12 13.8438 3.29875L16.0388 2.82625C16.1682 2.79862 16.303 2.81278 16.4239 2.86669C16.5447 2.92061 16.6454 3.01149 16.7113 3.12625L18.4438 6.125C18.5099 6.2397 18.5379 6.37244 18.5238 6.50409C18.5096 6.63574 18.454 6.75949 18.365 6.8575L16.8588 8.52C16.8807 8.83879 16.8807 9.15871 16.8588 9.4775L18.365 11.1425C18.454 11.2405 18.5096 11.3643 18.5238 11.4959C18.5379 11.6276 18.5099 11.7603 18.4438 11.875L16.7113 14.875C16.6452 14.9895 16.5445 15.0802 16.4236 15.1338C16.3028 15.1875 16.168 15.2015 16.0388 15.1737L13.8438 14.7013C13.5813 14.8787 13.3038 15.0388 13.0163 15.18L12.3275 17.3162C12.287 17.4422 12.2076 17.5521 12.1007 17.63C11.9937 17.708 11.8648 17.75 11.7325 17.75H8.26751C8.13519 17.75 8.00628 17.708 7.89936 17.63C7.79243 17.5521 7.713 17.4422 7.67251 17.3162L6.98626 15.1812C6.6983 15.0404 6.42054 14.8796 6.15501 14.7L3.96126 15.1737C3.83184 15.2014 3.697 15.1872 3.57614 15.1333C3.45528 15.0794 3.35466 14.9885 3.28876 14.8738L1.55626 11.875C1.49011 11.7603 1.46208 11.6276 1.47624 11.4959C1.49039 11.3643 1.54599 11.2405 1.63501 11.1425L3.14126 9.4775C3.11944 9.15954 3.11944 8.84046 3.14126 8.5225L1.63501 6.8575C1.54599 6.75949 1.49039 6.63574 1.47624 6.50409C1.46208 6.37244 1.49011 6.2397 1.55626 6.125L3.28876 3.125C3.35484 3.01047 3.45554 2.91984 3.57639 2.86616C3.69723 2.81248 3.83198 2.79851 3.96126 2.82625L6.15501 3.3C6.42001 3.12125 6.69751 2.96 6.98626 2.81875L7.67376 0.68375C7.71412 0.558181 7.79317 0.448598 7.8996 0.370687C8.00602 0.292777 8.13437 0.250532 8.26626 0.25H11.7313H11.7325ZM11.275 1.5H8.72501L8.01501 3.70875L7.53626 3.9425C7.30091 4.05767 7.07371 4.18881 6.85626 4.335L6.41376 4.635L4.14376 4.145L2.86876 6.355L4.42501 8.0775L4.38751 8.6075C4.36955 8.86886 4.36955 9.13114 4.38751 9.3925L4.42501 9.9225L2.86626 11.645L4.14251 13.855L6.41251 13.3663L6.85501 13.665C7.07246 13.8112 7.29966 13.9423 7.53501 14.0575L8.01376 14.2913L8.72501 16.5H11.2775L11.99 14.29L12.4675 14.0575C12.7026 13.9426 12.9294 13.8115 13.1463 13.665L13.5875 13.3663L15.8588 13.855L17.1338 11.645L15.5763 9.9225L15.6138 9.3925C15.6318 9.13073 15.6318 8.86802 15.6138 8.60625L15.5763 8.07625L17.135 6.355L15.8588 4.145L13.5875 4.6325L13.1463 4.335C12.9294 4.18854 12.7026 4.05739 12.4675 3.9425L11.99 3.71L11.2763 1.5H11.275ZM10 5.25C10.9946 5.25 11.9484 5.64509 12.6517 6.34835C13.3549 7.05161 13.75 8.00544 13.75 9C13.75 9.99456 13.3549 10.9484 12.6517 11.6517C11.9484 12.3549 10.9946 12.75 10 12.75C9.00545 12.75 8.05162 12.3549 7.34836 11.6517C6.6451 10.9484 6.25001 9.99456 6.25001 9C6.25001 8.00544 6.6451 7.05161 7.34836 6.34835C8.05162 5.64509 9.00545 5.25 10 5.25ZM10 6.5C9.33697 6.5 8.70109 6.76339 8.23225 7.23223C7.76341 7.70107 7.50001 8.33696 7.50001 9C7.50001 9.66304 7.76341 10.2989 8.23225 10.7678C8.70109 11.2366 9.33697 11.5 10 11.5C10.6631 11.5 11.2989 11.2366 11.7678 10.7678C12.2366 10.2989 12.5 9.66304 12.5 9C12.5 8.33696 12.2366 7.70107 11.7678 7.23223C11.2989 6.76339 10.6631 6.5 10 6.5Z" fill="#F5F5F5"/>
</g>
<defs>
<filter id="filter0_d_416_11763" x="-2.52734" y="0.25" width="25.0547" height="25.5" filterUnits="userSpaceOnUse" color-interpolation-filters="sRGB">
<feFlood flood-opacity="0" result="BackgroundImageFix"/>
<feColorMatrix in="SourceAlpha" type="matrix" values="0 0 0 0 0 0 0 0 0 0 0 0 0 0 0 0 0 0 127 0" result="hardAlpha"/>
<feOffset dy="4"/>
<feGaussianBlur stdDeviation="2"/>
<feComposite in2="hardAlpha" operator="out"/>
<feColorMatrix type="matrix" values="0 0 0 0 0 0 0 0 0 0 0 0 0 0 0 0 0 0 0.25 0"/>
<feBlend mode="normal" in2="BackgroundImageFix" result="effect1_dropShadow_416_11763"/>
<feBlend mode="normal" in="SourceGraphic" in2="effect1_dropShadow_416_11763" result="shape"/>
</filter>
</defs>
</svg>
